<svg width="224" height="224" viewBox="0 0 224 224" fill="none" xmlns="http://www.w3.org/2000/svg">
<path d="M218.946 1.12418C220.865 1.76403 222.602 3.70184 223.004 5.65793C223.79 9.42387 220.024 13.1898 216.258 12.4037C213.425 11.8187 211.231 8.93028 211.505 6.20637C211.706 4.28684 213.15 2.31247 214.978 1.41668C216.094 0.886528 217.812 0.758558 218.946 1.12418Z" fill="#181D31"/>
<path d="M195.545 1.12419C198.306 2.03825 200.171 5.07294 199.604 7.742C199.147 9.91747 197.118 11.9467 194.96 12.4037C191.414 13.1533 187.739 9.80778 188.105 6.20638C188.306 4.28685 189.75 2.31247 191.578 1.41669C192.694 0.886534 194.412 0.758565 195.545 1.12419Z" fill="#181D31"/>
<path d="M172.146 1.12418C174.065 1.76403 175.802 3.70184 176.204 5.65793C176.99 9.42387 173.224 13.1898 169.458 12.4037C166.625 11.8187 164.431 8.93028 164.705 6.20637C164.906 4.28684 166.351 2.31247 168.179 1.41668C169.294 0.886528 171.012 0.758559 172.146 1.12418Z" fill="#181D31" />
<path d="M148.745 1.12418C150.665 1.76403 152.402 3.70184 152.804 5.65793C153.59 9.42387 149.824 13.1898 146.058 12.4037C143.224 11.8187 141.031 8.93028 141.305 6.20637C141.506 4.28684 142.95 2.31247 144.778 1.41668C145.893 0.886528 147.612 0.758559 148.745 1.12418Z" fill="#181D31" />
<path d="M125.345 1.12418C127.265 1.76403 129.002 3.70184 129.404 5.65793C130.19 9.42387 126.424 13.1898 122.658 12.4037C119.824 11.8187 117.631 8.93028 117.905 6.20637C118.106 4.28684 119.55 2.31247 121.378 1.41668C122.494 0.886528 124.212 0.758559 125.345 1.12418Z" fill="#181D31" />
<path d="M101.946 1.12418C103.865 1.76403 105.602 3.70184 106.004 5.65793C106.79 9.42387 103.024 13.1898 99.2582 12.4037C96.4247 11.8187 94.231 8.93028 94.5052 6.20637C94.7063 4.28684 96.1505 2.31247 97.9786 1.41668C99.0937 0.886528 100.812 0.758559 101.946 1.12418Z" fill="#181D31" />
<path d="M78.5456 1.12418C80.4651 1.76403 82.2018 3.70184 82.604 5.65793C83.3901 9.42387 79.6242 13.1898 75.8583 12.4037C73.0247 11.8187 70.8309 8.93028 71.1052 6.20637C71.3063 4.28684 72.7505 2.31247 74.5786 1.41668C75.6937 0.886528 77.4122 0.758559 78.5456 1.12418Z" fill="#181D31" />
<path d="M55.1457 1.12418C57.0652 1.76403 58.8019 3.70184 59.2041 5.65793C59.9902 9.42387 56.2243 13.1898 52.4583 12.4037C49.6247 11.8187 47.4309 8.93028 47.7052 6.20637C47.9063 4.28684 49.3505 2.31247 51.1786 1.41668C52.2938 0.886528 54.0122 0.758559 55.1457 1.12418Z" fill="#181D31" />
<path d="M31.7452 1.12421C33.6648 1.76406 35.4015 3.70187 35.8037 5.65796C36.2607 7.79687 35.2187 10.1186 33.2077 11.4897C31.2516 12.8425 29.0213 12.8608 27.0469 11.5445C23.8111 9.38734 23.3724 5.36546 26.078 2.67812C27.6319 1.10593 29.8623 0.50265 31.7452 1.12421Z" fill="#181D31" />
<path d="M8.34534 1.12421C10.2649 1.76406 12.0016 3.70187 12.4038 5.65796C12.8608 7.79687 11.8188 10.1186 9.80785 11.4897C7.85175 12.8425 5.62143 12.8608 3.64705 11.5445C0.411259 9.38734 -0.0274925 5.36546 2.67814 2.67812C4.23205 1.10593 6.46237 0.50265 8.34534 1.12421Z" fill="#181D31" />
<path d="M218.946 24.5242C220.865 25.1641 222.602 27.1019 223.004 29.058C223.79 32.8239 220.024 36.5898 216.258 35.8037C213.425 35.2187 211.231 32.3303 211.505 29.6064C211.706 27.6869 213.15 25.7125 214.978 24.8167C216.094 24.2866 217.812 24.1586 218.946 24.5242Z" fill="#181D31"/>
<path d="M195.545 24.5241C198.306 25.4382 200.171 28.4729 199.604 31.1419C199.147 33.3174 197.118 35.3466 194.96 35.8036C191.414 36.5532 187.739 33.2077 188.105 29.6063C188.306 27.6868 189.75 25.7124 191.578 24.8166C192.694 24.2865 194.412 24.1585 195.545 24.5241Z" fill="#181D31"/>
<path d="M172.146 24.5242C174.065 25.1641 175.802 27.1019 176.204 29.058C176.99 32.8239 173.224 36.5898 169.458 35.8037C166.625 35.2187 164.431 32.3303 164.705 29.6064C164.906 27.6869 166.351 25.7125 168.179 24.8167C169.294 24.2866 171.012 24.1586 172.146 24.5242Z" fill="#181D31" />
<path d="M148.745 24.5242C150.665 25.1641 152.402 27.1019 152.804 29.058C153.59 32.8239 149.824 36.5898 146.058 35.8037C143.224 35.2187 141.031 32.3303 141.305 29.6064C141.506 27.6869 142.95 25.7125 144.778 24.8167C145.893 24.2866 147.612 24.1586 148.745 24.5242Z" fill="#181D31" />
<path d="M125.345 24.5242C127.265 25.1641 129.002 27.1019 129.404 29.058C130.19 32.8239 126.424 36.5898 122.658 35.8037C119.824 35.2187 117.631 32.3303 117.905 29.6064C118.106 27.6869 119.55 25.7125 121.378 24.8167C122.494 24.2866 124.212 24.1586 125.345 24.5242Z" fill="#181D31" />
<path d="M101.946 24.5242C103.865 25.1641 105.602 27.1019 106.004 29.058C106.79 32.8239 103.024 36.5898 99.2582 35.8037C96.4247 35.2187 94.231 32.3303 94.5052 29.6064C94.7063 27.6869 96.1505 25.7125 97.9786 24.8167C99.0937 24.2866 100.812 24.1586 101.946 24.5242Z" fill="#181D31" />
<path d="M78.5456 24.5242C80.4651 25.1641 82.2018 27.1019 82.604 29.058C83.3901 32.8239 79.6242 36.5898 75.8583 35.8037C73.0247 35.2187 70.8309 32.3303 71.1052 29.6064C71.3063 27.6869 72.7505 25.7125 74.5786 24.8167C75.6937 24.2866 77.4122 24.1586 78.5456 24.5242Z" fill="#181D31" />
<path d="M55.1457 24.5242C57.0652 25.1641 58.8019 27.1019 59.2041 29.058C59.9902 32.8239 56.2243 36.5898 52.4583 35.8037C49.6247 35.2187 47.4309 32.3303 47.7052 29.6064C47.9063 27.6869 49.3505 25.7125 51.1786 24.8167C52.2938 24.2866 54.0122 24.1586 55.1457 24.5242Z" fill="#181D31" />
<path d="M31.7452 24.5241C33.6648 25.1639 35.4015 27.1018 35.8037 29.0579C36.2607 31.1968 35.2187 33.5185 33.2077 34.8896C31.2516 36.2424 29.0213 36.2607 27.0469 34.9444C23.8111 32.7872 23.3724 28.7654 26.078 26.078C27.6319 24.5058 29.8623 23.9025 31.7452 24.5241Z" fill="#181D31" />
<path d="M8.34534 24.5241C10.2649 25.1639 12.0016 27.1018 12.4038 29.0579C12.8608 31.1968 11.8188 33.5185 9.80785 34.8896C7.85175 36.2424 5.62143 36.2607 3.64705 34.9444C0.411259 32.7872 -0.0274925 28.7654 2.67814 26.078C4.23205 24.5058 6.46237 23.9025 8.34534 24.5241Z" fill="#181D31" />
<path d="M218.946 47.9241C220.865 48.5639 222.602 50.5017 223.004 52.4578C223.79 56.2238 220.024 59.9897 216.258 59.2036C213.425 58.6186 211.231 55.7302 211.505 53.0063C211.706 51.0867 213.15 49.1124 214.978 48.2166C216.094 47.6864 217.812 47.5584 218.946 47.9241Z" fill="#181D31"/>
<path d="M195.546 47.9241C197.465 48.5639 199.202 50.5017 199.604 52.4578C200.39 56.2238 196.624 59.9897 192.858 59.2036C190.025 58.6186 187.831 55.7302 188.105 53.0063C188.306 51.0867 189.75 49.1124 191.579 48.2166C192.694 47.6864 194.412 47.5584 195.546 47.9241Z" fill="#181D31"/>
<path d="M172.146 47.9241C174.065 48.5639 175.802 50.5017 176.204 52.4578C176.99 56.2238 173.224 59.9897 169.458 59.2036C166.625 58.6186 164.431 55.7302 164.705 53.0063C164.906 51.0867 166.351 49.1124 168.179 48.2166C169.294 47.6864 171.012 47.5584 172.146 47.9241Z" fill="#181D31" />
<path d="M148.745 47.9241C150.665 48.5639 152.402 50.5017 152.804 52.4578C153.59 56.2238 149.824 59.9897 146.058 59.2036C143.224 58.6186 141.031 55.7302 141.305 53.0063C141.506 51.0867 142.95 49.1124 144.778 48.2166C145.893 47.6864 147.612 47.5584 148.745 47.9241Z" fill="#181D31" />
<path d="M125.345 47.9241C127.265 48.5639 129.002 50.5017 129.404 52.4578C130.19 56.2238 126.424 59.9897 122.658 59.2036C119.824 58.6186 117.631 55.7302 117.905 53.0063C118.106 51.0867 119.55 49.1124 121.378 48.2166C122.494 47.6864 124.212 47.5584 125.345 47.9241Z" fill="#181D31" />
<path d="M101.946 47.9241C103.865 48.5639 105.602 50.5017 106.004 52.4578C106.79 56.2238 103.024 59.9897 99.2582 59.2036C96.4247 58.6186 94.231 55.7302 94.5052 53.0063C94.7063 51.0867 96.1505 49.1124 97.9786 48.2166C99.0937 47.6864 100.812 47.5584 101.946 47.9241Z" fill="#181D31" />
<path d="M78.5456 47.9241C80.4651 48.5639 82.2018 50.5017 82.604 52.4578C83.3901 56.2238 79.6242 59.9897 75.8583 59.2036C73.0247 58.6186 70.8309 55.7302 71.1052 53.0063C71.3063 51.0867 72.7505 49.1124 74.5786 48.2166C75.6937 47.6864 77.4122 47.5584 78.5456 47.9241Z" fill="#181D31" />
<path d="M55.1457 47.9241C57.0652 48.5639 58.8019 50.5017 59.2041 52.4578C59.9902 56.2238 56.2243 59.9897 52.4583 59.2036C49.6247 58.6186 47.4309 55.7302 47.7052 53.0063C47.9063 51.0867 49.3505 49.1124 51.1786 48.2166C52.2938 47.6864 54.0122 47.5584 55.1457 47.9241Z" fill="#181D31" />
<path d="M31.7454 47.9241C33.6649 48.5639 35.4016 50.5017 35.8037 52.4578C36.5898 56.2238 32.8239 59.9897 29.058 59.2036C26.2245 58.6186 24.0308 55.7302 24.305 53.0063C24.5061 51.0867 25.9503 49.1124 27.7784 48.2166C28.8935 47.6864 30.6119 47.5584 31.7454 47.9241Z" fill="#181D31" />
<path d="M8.34537 47.9241C10.2649 48.5639 12.0016 50.5017 12.4038 52.4578C13.1899 56.2238 9.42397 59.9897 5.65801 59.2036C2.8244 58.6186 0.630639 55.7302 0.90486 53.0063C1.10595 51.0867 2.55018 49.1124 4.37832 48.2166C5.49348 47.6864 7.21193 47.5584 8.34537 47.9241Z" fill="#181D31" />
<path d="M218.946 71.3242C220.865 71.964 222.602 73.9018 223.004 75.8579C223.79 79.6238 220.024 83.3898 216.258 82.6037C213.425 82.0187 211.231 79.1302 211.505 76.4063C211.706 74.4868 213.15 72.5124 214.978 71.6167C216.094 71.0865 217.812 70.9585 218.946 71.3242Z" fill="#181D31"/>
<path d="M195.546 71.3242C197.465 71.964 199.202 73.9018 199.604 75.8579C200.39 79.6238 196.624 83.3898 192.858 82.6037C190.025 82.0187 187.831 79.1302 188.105 76.4063C188.306 74.4868 189.75 72.5124 191.579 71.6167C192.694 71.0865 194.412 70.9585 195.546 71.3242Z" fill="#181D31"/>
<path d="M172.146 71.3242C174.065 71.964 175.802 73.9018 176.204 75.8579C176.99 79.6238 173.224 83.3898 169.458 82.6037C166.625 82.0187 164.431 79.1302 164.705 76.4063C164.906 74.4868 166.351 72.5124 168.179 71.6167C169.294 71.0865 171.012 70.9585 172.146 71.3242Z" fill="#181D31" />
<path d="M148.745 71.3242C150.665 71.964 152.402 73.9018 152.804 75.8579C153.59 79.6238 149.824 83.3898 146.058 82.6037C143.224 82.0187 141.031 79.1302 141.305 76.4063C141.506 74.4868 142.95 72.5124 144.778 71.6167C145.893 71.0865 147.612 70.9585 148.745 71.3242Z" fill="#181D31" />
<path d="M125.345 71.3242C127.265 71.964 129.002 73.9018 129.404 75.8579C130.19 79.6238 126.424 83.3898 122.658 82.6037C119.824 82.0187 117.631 79.1302 117.905 76.4063C118.106 74.4868 119.55 72.5124 121.378 71.6167C122.494 71.0865 124.212 70.9585 125.345 71.3242Z" fill="#181D31" />
<path d="M101.946 71.3242C103.865 71.964 105.602 73.9018 106.004 75.8579C106.79 79.6238 103.024 83.3898 99.2582 82.6037C96.4247 82.0187 94.231 79.1302 94.5052 76.4063C94.7063 74.4868 96.1505 72.5124 97.9786 71.6167C99.0937 71.0865 100.812 70.9585 101.946 71.3242Z" fill="#181D31" />
<path d="M78.5456 71.3242C80.4651 71.964 82.2018 73.9018 82.604 75.8579C83.3901 79.6238 79.6242 83.3898 75.8583 82.6037C73.0247 82.0187 70.8309 79.1302 71.1052 76.4063C71.3063 74.4868 72.7505 72.5124 74.5786 71.6167C75.6937 71.0865 77.4122 70.9585 78.5456 71.3242Z" fill="#181D31" />
<path d="M55.1457 71.3242C57.0652 71.964 58.8019 73.9018 59.2041 75.8579C59.9902 79.6238 56.2243 83.3898 52.4583 82.6037C49.6247 82.0187 47.4309 79.1302 47.7052 76.4063C47.9063 74.4868 49.3505 72.5124 51.1786 71.6167C52.2938 71.0865 54.0122 70.9585 55.1457 71.3242Z" fill="#181D31" />
<path d="M31.7454 71.3242C33.6649 71.964 35.4016 73.9018 35.8037 75.8579C36.5898 79.6238 32.8239 83.3898 29.058 82.6037C26.2245 82.0187 24.0308 79.1302 24.305 76.4063C24.5061 74.4868 25.9503 72.5124 27.7784 71.6167C28.8935 71.0865 30.6119 70.9585 31.7454 71.3242Z" fill="#181D31" />
<path d="M8.34537 71.3242C10.2649 71.964 12.0016 73.9018 12.4038 75.8579C13.1899 79.6238 9.42397 83.3898 5.65801 82.6037C2.8244 82.0187 0.630639 79.1302 0.90486 76.4063C1.10595 74.4868 2.55018 72.5124 4.37832 71.6167C5.49348 71.0865 7.21193 70.9585 8.34537 71.3242Z" fill="#181D31" />
<path d="M218.946 94.7241C220.865 95.364 222.602 97.3018 223.004 99.2579C223.79 103.024 220.024 106.79 216.258 106.004C213.425 105.419 211.231 102.53 211.505 99.8063C211.706 97.8868 213.15 95.9124 214.978 95.0166C216.094 94.4865 217.812 94.3585 218.946 94.7241Z" fill="#181D31"/>
<path d="M195.546 94.7241C197.465 95.364 199.202 97.3018 199.604 99.2579C200.39 103.024 196.624 106.79 192.858 106.004C190.025 105.419 187.831 102.53 188.105 99.8063C188.306 97.8868 189.75 95.9124 191.579 95.0166C192.694 94.4865 194.412 94.3585 195.546 94.7241Z" fill="#181D31"/>
<path d="M172.146 94.7241C174.065 95.364 175.802 97.3018 176.204 99.2579C176.99 103.024 173.224 106.79 169.458 106.004C166.625 105.419 164.431 102.53 164.705 99.8063C164.906 97.8868 166.351 95.9124 168.179 95.0166C169.294 94.4865 171.012 94.3585 172.146 94.7241Z" fill="#181D31" />
<path d="M148.745 94.7241C150.665 95.364 152.402 97.3018 152.804 99.2579C153.59 103.024 149.824 106.79 146.058 106.004C143.224 105.419 141.031 102.53 141.305 99.8063C141.506 97.8868 142.95 95.9124 144.778 95.0166C145.893 94.4865 147.612 94.3585 148.745 94.7241Z" fill="#181D31" />
<path d="M125.345 94.7241C127.265 95.364 129.002 97.3018 129.404 99.2579C130.19 103.024 126.424 106.79 122.658 106.004C119.824 105.419 117.631 102.53 117.905 99.8063C118.106 97.8868 119.55 95.9124 121.378 95.0166C122.494 94.4865 124.212 94.3585 125.345 94.7241Z" fill="#181D31" />
<path d="M101.946 94.7241C103.865 95.364 105.602 97.3018 106.004 99.2579C106.79 103.024 103.024 106.79 99.2582 106.004C96.4247 105.419 94.231 102.53 94.5052 99.8063C94.7063 97.8868 96.1505 95.9124 97.9786 95.0166C99.0937 94.4865 100.812 94.3585 101.946 94.7241Z" fill="#181D31" />
<path d="M78.5456 94.7241C80.4651 95.364 82.2018 97.3018 82.604 99.2579C83.3901 103.024 79.6242 106.79 75.8583 106.004C73.0247 105.419 70.8309 102.53 71.1052 99.8063C71.3063 97.8868 72.7505 95.9124 74.5786 95.0166C75.6937 94.4865 77.4122 94.3585 78.5456 94.7241Z" fill="#181D31" />
<path d="M55.1457 94.7241C57.0652 95.364 58.8019 97.3018 59.2041 99.2579C59.9902 103.024 56.2243 106.79 52.4583 106.004C49.6247 105.419 47.4309 102.53 47.7052 99.8063C47.9063 97.8868 49.3505 95.9124 51.1786 95.0166C52.2938 94.4865 54.0122 94.3585 55.1457 94.7241Z" fill="#181D31" />
<path d="M31.7454 94.7241C33.6649 95.364 35.4016 97.3018 35.8037 99.2579C36.5898 103.024 32.8239 106.79 29.058 106.004C26.2245 105.419 24.0308 102.53 24.305 99.8063C24.5061 97.8868 25.9503 95.9124 27.7784 95.0166C28.8935 94.4865 30.6119 94.3585 31.7454 94.7241Z" fill="#181D31" />
<path d="M8.34537 94.7241C10.2649 95.364 12.0016 97.3018 12.4038 99.2579C13.1899 103.024 9.42397 106.79 5.65801 106.004C2.8244 105.419 0.630639 102.53 0.90486 99.8063C1.10595 97.8868 2.55018 95.9124 4.37832 95.0166C5.49348 94.4865 7.21193 94.3585 8.34537 94.7241Z" fill="#181D31" />
<path d="M218.946 118.124C220.865 118.764 222.602 120.702 223.004 122.658C223.79 126.424 220.024 130.19 216.258 129.404C213.425 128.819 211.231 125.93 211.505 123.206C211.706 121.287 213.15 119.312 214.978 118.417C216.094 117.886 217.812 117.759 218.946 118.124Z" fill="#181D31"/>
<path d="M195.546 118.124C197.465 118.764 199.202 120.702 199.604 122.658C200.39 126.424 196.624 130.19 192.858 129.404C190.025 128.819 187.831 125.93 188.105 123.206C188.306 121.287 189.75 119.312 191.579 118.417C192.694 117.886 194.412 117.759 195.546 118.124Z" fill="#181D31"/>
<path d="M172.146 118.124C174.065 118.764 175.802 120.702 176.204 122.658C176.99 126.424 173.224 130.19 169.458 129.404C166.625 128.819 164.431 125.93 164.705 123.206C164.906 121.287 166.351 119.312 168.179 118.417C169.294 117.886 171.012 117.759 172.146 118.124Z" fill="#181D31" />
<path d="M148.745 118.124C150.665 118.764 152.402 120.702 152.804 122.658C153.59 126.424 149.824 130.19 146.058 129.404C143.224 128.819 141.031 125.93 141.305 123.206C141.506 121.287 142.95 119.312 144.778 118.417C145.893 117.886 147.612 117.759 148.745 118.124Z" fill="#181D31" />
<path d="M125.345 118.124C127.265 118.764 129.002 120.702 129.404 122.658C130.19 126.424 126.424 130.19 122.658 129.404C119.824 128.819 117.631 125.93 117.905 123.206C118.106 121.287 119.55 119.312 121.378 118.417C122.494 117.886 124.212 117.759 125.345 118.124Z" fill="#181D31" />
<path d="M101.946 118.124C103.865 118.764 105.602 120.702 106.004 122.658C106.79 126.424 103.024 130.19 99.2582 129.404C96.4247 128.819 94.231 125.93 94.5052 123.206C94.7063 121.287 96.1505 119.312 97.9786 118.417C99.0937 117.886 100.812 117.759 101.946 118.124Z" fill="#181D31" />
<path d="M78.5456 118.124C80.4651 118.764 82.2018 120.702 82.604 122.658C83.3901 126.424 79.6242 130.19 75.8583 129.404C73.0247 128.819 70.8309 125.93 71.1052 123.206C71.3063 121.287 72.7505 119.312 74.5786 118.417C75.6937 117.886 77.4122 117.759 78.5456 118.124Z" fill="#181D31" />
<path d="M55.1457 118.124C57.0652 118.764 58.8019 120.702 59.2041 122.658C59.9902 126.424 56.2243 130.19 52.4583 129.404C49.6247 128.819 47.4309 125.93 47.7052 123.206C47.9063 121.287 49.3505 119.312 51.1786 118.417C52.2938 117.886 54.0122 117.759 55.1457 118.124Z" fill="#181D31" />
<path d="M31.7454 118.124C33.6649 118.764 35.4016 120.702 35.8037 122.658C36.5898 126.424 32.8239 130.19 29.058 129.404C26.2245 128.819 24.0308 125.93 24.305 123.206C24.5061 121.287 25.9503 119.312 27.7784 118.417C28.8935 117.886 30.6119 117.759 31.7454 118.124Z" fill="#181D31" />
<path d="M8.34537 118.124C10.2649 118.764 12.0016 120.702 12.4038 122.658C13.1899 126.424 9.42397 130.19 5.65801 129.404C2.8244 128.819 0.630639 125.93 0.90486 123.206C1.10595 121.287 2.55018 119.312 4.37832 118.417C5.49348 117.886 7.21193 117.759 8.34537 118.124Z" fill="#181D31" />
<path d="M218.946 141.524C220.865 142.164 222.602 144.102 223.004 146.058C223.79 149.824 220.024 153.59 216.258 152.804C213.425 152.219 211.231 149.33 211.505 146.606C211.706 144.687 213.15 142.713 214.978 141.817C216.094 141.287 217.812 141.159 218.946 141.524Z" fill="#181D31"/>
<path d="M195.546 141.524C197.465 142.164 199.202 144.102 199.604 146.058C200.39 149.824 196.624 153.59 192.858 152.804C190.025 152.219 187.831 149.33 188.105 146.606C188.306 144.687 189.75 142.713 191.579 141.817C192.694 141.287 194.412 141.159 195.546 141.524Z" fill="#181D31"/>
<path d="M172.146 141.524C174.065 142.164 175.802 144.102 176.204 146.058C176.661 148.197 175.619 150.518 173.608 151.89C171.652 153.242 169.422 153.261 167.447 151.944C164.212 149.787 163.773 145.765 166.478 143.078C168.032 141.506 170.263 140.903 172.146 141.524Z" fill="#181D31" />
<path d="M148.746 141.524C150.665 142.164 152.402 144.102 152.804 146.058C153.261 148.197 152.219 150.518 150.208 151.89C148.252 153.242 146.022 153.261 144.047 151.944C140.812 149.787 140.373 145.765 143.079 143.078C144.632 141.506 146.863 140.903 148.746 141.524Z" fill="#181D31" />
<path d="M125.345 141.524C128.106 142.438 129.97 145.473 129.404 148.142C128.947 150.318 126.917 152.347 124.742 152.804C121.214 153.553 117.539 150.208 117.905 146.606C118.106 144.687 119.55 142.713 121.378 141.817C122.493 141.287 124.212 141.159 125.345 141.524Z" fill="#181D31" />
<path d="M101.945 141.524C104.706 142.438 106.571 145.473 106.004 148.142C105.547 150.318 103.518 152.347 101.342 152.804C97.8139 153.553 94.1394 150.208 94.505 146.606C94.7061 144.687 96.1503 142.713 97.9784 141.817C99.0936 141.287 100.812 141.159 101.945 141.524Z" fill="#181D31" />
<path d="M78.5454 141.524C81.3059 142.438 83.1706 145.473 82.6039 148.142C82.1469 150.318 80.1176 152.347 77.9421 152.804C74.4138 153.553 70.7393 150.208 71.1049 146.606C71.306 144.687 72.7502 142.713 74.5784 141.817C75.6935 141.287 77.412 141.159 78.5454 141.524Z" fill="#181D31" />
<path d="M55.1456 141.524C57.906 142.438 59.7707 145.473 59.204 148.142C58.747 150.318 56.7178 152.347 54.5423 152.804C51.014 153.553 47.3395 150.208 47.7051 146.606C47.9062 144.687 49.3504 142.713 51.1785 141.817C52.2937 141.287 54.0121 141.159 55.1456 141.524Z" fill="#181D31" />
<path d="M31.7454 141.524C33.6649 142.164 35.4016 144.102 35.8037 146.058C36.5898 149.824 32.8239 153.59 29.058 152.804C26.2245 152.219 24.0308 149.33 24.305 146.606C24.5061 144.687 25.9503 142.713 27.7784 141.817C28.8935 141.287 30.6119 141.159 31.7454 141.524Z" fill="#181D31" />
<path d="M8.34537 141.524C10.2649 142.164 12.0016 144.102 12.4038 146.058C13.1899 149.824 9.42397 153.59 5.65801 152.804C2.8244 152.219 0.630639 149.33 0.90486 146.606C1.10595 144.687 2.55018 142.713 4.37832 141.817C5.49348 141.287 7.21193 141.159 8.34537 141.524Z" fill="#181D31" />
<path d="M218.946 164.924C220.865 165.564 222.602 167.502 223.004 169.458C223.79 173.224 220.024 176.99 216.258 176.204C213.425 175.619 211.231 172.73 211.505 170.006C211.706 168.087 213.15 166.112 214.978 165.217C216.094 164.687 217.812 164.559 218.946 164.924Z" fill="#181D31"/>
<path d="M195.546 164.924C197.465 165.564 199.202 167.502 199.604 169.458C200.39 173.224 196.624 176.99 192.858 176.204C190.025 175.619 187.831 172.73 188.105 170.006C188.306 168.087 189.75 166.112 191.579 165.217C192.694 164.687 194.412 164.559 195.546 164.924Z" fill="#181D31"/>
<path d="M172.146 164.924C174.065 165.564 175.802 167.502 176.204 169.458C176.661 171.597 175.619 173.919 173.608 175.29C171.652 176.643 169.422 176.661 167.447 175.345C164.212 173.187 163.773 169.165 166.478 166.478C168.032 164.906 170.263 164.303 172.146 164.924Z" fill="#181D31"/>
<path d="M148.746 164.924C150.665 165.564 152.402 167.502 152.804 169.458C153.261 171.597 152.219 173.919 150.208 175.29C148.252 176.643 146.022 176.661 144.047 175.345C140.812 173.187 140.373 169.165 143.079 166.478C144.632 164.906 146.863 164.303 148.746 164.924Z" fill="#181D31" />
<path d="M125.345 164.924C128.106 165.838 129.97 168.873 129.404 171.542C128.947 173.718 126.917 175.747 124.742 176.204C121.214 176.953 117.539 173.608 117.905 170.006C118.106 168.087 119.55 166.112 121.378 165.217C122.493 164.687 124.212 164.559 125.345 164.924Z" fill="#181D31" />
<path d="M101.945 164.924C104.706 165.838 106.571 168.873 106.004 171.542C105.547 173.718 103.518 175.747 101.342 176.204C97.8139 176.953 94.1394 173.608 94.505 170.006C94.7061 168.087 96.1503 166.112 97.9784 165.217C99.0936 164.687 100.812 164.559 101.945 164.924Z" fill="#181D31" />
<path d="M78.5454 164.924C81.3059 165.838 83.1706 168.873 82.6039 171.542C82.1469 173.718 80.1176 175.747 77.9421 176.204C74.4138 176.953 70.7393 173.608 71.1049 170.006C71.306 168.087 72.7502 166.112 74.5784 165.217C75.6935 164.687 77.412 164.559 78.5454 164.924Z" fill="#181D31" />
<path d="M55.1456 164.924C57.906 165.838 59.7707 168.873 59.204 171.542C58.747 173.718 56.7178 175.747 54.5423 176.204C51.014 176.953 47.3395 173.608 47.7051 170.006C47.9062 168.087 49.3504 166.112 51.1785 165.217C52.2937 164.687 54.0121 164.559 55.1456 164.924Z" fill="#181D31" />
<path d="M31.7454 164.924C33.6649 165.564 35.4016 167.502 35.8037 169.458C36.5898 173.224 32.8239 176.99 29.058 176.204C26.2245 175.619 24.0308 172.73 24.305 170.006C24.5061 168.087 25.9503 166.112 27.7784 165.217C28.8935 164.687 30.6119 164.559 31.7454 164.924Z" fill="#181D31" />
<path d="M8.34537 164.924C10.2649 165.564 12.0016 167.502 12.4038 169.458C13.1899 173.224 9.42397 176.99 5.65801 176.204C2.8244 175.619 0.630639 172.73 0.90486 170.006C1.10595 168.087 2.55018 166.112 4.37832 165.217C5.49348 164.687 7.21193 164.559 8.34537 164.924Z" fill="#181D31" />
<path d="M218.946 188.324C220.865 188.964 222.602 190.902 223.004 192.858C223.79 196.624 220.024 200.39 216.258 199.604C213.425 199.019 211.231 196.13 211.505 193.406C211.706 191.487 213.15 189.512 214.978 188.617C216.094 188.086 217.812 187.958 218.946 188.324Z" fill="#181D31"/>
<path d="M195.546 188.324C197.465 188.964 199.202 190.902 199.604 192.858C200.39 196.624 196.624 200.39 192.858 199.604C190.025 199.019 187.831 196.13 188.105 193.406C188.306 191.487 189.75 189.512 191.579 188.617C192.694 188.086 194.412 187.958 195.546 188.324Z" fill="#181D31"/>
<path d="M172.146 188.324C174.065 188.964 175.802 190.902 176.204 192.858C176.661 194.997 175.619 197.319 173.608 198.69C171.652 200.043 169.422 200.061 167.447 198.745C164.212 196.587 163.773 192.565 166.478 189.878C168.032 188.306 170.263 187.703 172.146 188.324Z" fill="#181D31"/>
<path d="M148.746 188.324C150.665 188.964 152.402 190.902 152.804 192.858C153.261 194.997 152.219 197.319 150.208 198.69C148.252 200.043 146.022 200.061 144.047 198.745C140.812 196.587 140.373 192.565 143.079 189.878C144.632 188.306 146.863 187.703 148.746 188.324Z" fill="#181D31"/>
<path d="M125.345 188.324C127.265 188.964 129.002 190.902 129.404 192.858C130.19 196.624 126.424 200.39 122.658 199.604C119.824 199.019 117.631 196.13 117.905 193.406C118.106 191.487 119.55 189.512 121.378 188.617C122.494 188.086 124.212 187.958 125.345 188.324Z" fill="#181D31"/>
<path d="M101.946 188.324C103.865 188.964 105.602 190.902 106.004 192.858C106.79 196.624 103.024 200.39 99.2582 199.604C96.4247 199.019 94.231 196.13 94.5052 193.406C94.7063 191.487 96.1505 189.512 97.9786 188.617C99.0937 188.086 100.812 187.958 101.946 188.324Z" fill="#181D31"/>
<path d="M78.5456 188.324C80.4651 188.964 82.2018 190.902 82.604 192.858C83.3901 196.624 79.6242 200.39 75.8583 199.604C73.0247 199.019 70.8309 196.13 71.1052 193.406C71.3063 191.487 72.7505 189.512 74.5786 188.617C75.6937 188.086 77.4122 187.958 78.5456 188.324Z" fill="#181D31"/>
<path d="M55.1457 188.324C57.0652 188.964 58.8019 190.902 59.2041 192.858C59.9902 196.624 56.2243 200.39 52.4583 199.604C49.6247 199.019 47.4309 196.13 47.7052 193.406C47.9063 191.487 49.3505 189.512 51.1786 188.617C52.2938 188.086 54.0122 187.958 55.1457 188.324Z" fill="#181D31"/>
<path d="M31.7454 188.324C33.6649 188.964 35.4016 190.902 35.8037 192.858C36.5898 196.624 32.8239 200.39 29.058 199.604C26.2245 199.019 24.0308 196.13 24.305 193.406C24.5061 191.487 25.9503 189.512 27.7784 188.617C28.8935 188.086 30.6119 187.958 31.7454 188.324Z" fill="#181D31"/>
<path d="M8.34537 188.324C10.2649 188.964 12.0016 190.902 12.4038 192.858C13.1899 196.624 9.42397 200.39 5.65801 199.604C2.8244 199.019 0.630639 196.13 0.90486 193.406C1.10595 191.487 2.55018 189.512 4.37832 188.617C5.49348 188.086 7.21193 187.958 8.34537 188.324Z" fill="#181D31"/>
<path d="M218.946 211.724C220.865 212.364 222.602 214.302 223.004 216.258C223.79 220.024 220.024 223.79 216.258 223.004C213.425 222.419 211.231 219.53 211.505 216.806C211.706 214.887 213.15 212.912 214.978 212.017C216.094 211.486 217.812 211.358 218.946 211.724Z" fill="#181D31"/>
<path d="M195.546 211.724C197.465 212.364 199.202 214.302 199.604 216.258C200.39 220.024 196.624 223.79 192.858 223.004C190.025 222.419 187.831 219.53 188.105 216.806C188.306 214.887 189.75 212.912 191.579 212.017C192.694 211.486 194.412 211.358 195.546 211.724Z" fill="#181D31"/>
<path d="M172.146 211.724C174.065 212.364 175.802 214.302 176.204 216.258C176.99 220.024 173.224 223.79 169.458 223.004C166.625 222.419 164.431 219.53 164.705 216.806C164.906 214.887 166.351 212.912 168.179 212.017C169.294 211.486 171.012 211.358 172.146 211.724Z" fill="#181D31"/>
<path d="M148.745 211.724C150.665 212.364 152.402 214.302 152.804 216.258C153.59 220.024 149.824 223.79 146.058 223.004C143.224 222.419 141.031 219.53 141.305 216.806C141.506 214.887 142.95 212.912 144.778 212.017C145.893 211.486 147.612 211.358 148.745 211.724Z" fill="#181D31"/>
<path d="M125.345 211.724C127.265 212.364 129.002 214.302 129.404 216.258C130.19 220.024 126.424 223.79 122.658 223.004C119.824 222.419 117.631 219.53 117.905 216.806C118.106 214.887 119.55 212.912 121.378 212.017C122.494 211.486 124.212 211.358 125.345 211.724Z" fill="#181D31"/>
<path d="M101.946 211.724C103.865 212.364 105.602 214.302 106.004 216.258C106.79 220.024 103.024 223.79 99.2582 223.004C96.4247 222.419 94.231 219.53 94.5052 216.806C94.7063 214.887 96.1505 212.912 97.9786 212.017C99.0937 211.486 100.812 211.358 101.946 211.724Z" fill="#181D31"/>
<path d="M78.5456 211.724C80.4651 212.364 82.2018 214.302 82.604 216.258C83.3901 220.024 79.6242 223.79 75.8583 223.004C73.0247 222.419 70.8309 219.53 71.1052 216.806C71.3063 214.887 72.7505 212.912 74.5786 212.017C75.6937 211.486 77.4122 211.358 78.5456 211.724Z" fill="#181D31"/>
<path d="M55.1457 211.724C57.0652 212.364 58.8019 214.302 59.2041 216.258C59.9902 220.024 56.2243 223.79 52.4583 223.004C49.6247 222.419 47.4309 219.53 47.7052 216.806C47.9063 214.887 49.3505 212.912 51.1786 212.017C52.2938 211.486 54.0122 211.358 55.1457 211.724Z" fill="#181D31"/>
<path d="M31.7454 211.724C33.6649 212.364 35.4016 214.302 35.8037 216.258C36.5898 220.024 32.8239 223.79 29.058 223.004C26.2245 222.419 24.0308 219.53 24.305 216.806C24.5061 214.887 25.9503 212.912 27.7784 212.017C28.8935 211.486 30.6119 211.358 31.7454 211.724Z" fill="#181D31"/>
<path d="M8.34537 211.724C10.2649 212.364 12.0016 214.302 12.4038 216.258C13.1899 220.024 9.42397 223.79 5.65801 223.004C2.8244 222.419 0.630639 219.53 0.90486 216.806C1.10595 214.887 2.55018 212.912 4.37832 212.017C5.49348 211.486 7.21193 211.358 8.34537 211.724Z" fill="#181D31"/>
</svg>
