<svg width="35" height="35" viewBox="0 0 35 35" fill="none" xmlns="http://www.w3.org/2000/svg">
<path d="M19.9167 9.33338C23.9475 9.33338 25.6667 11.0526 25.6667 15.0834H29.5001C29.5001 8.90213 26.098 5.50005 19.9167 5.50005V9.33338ZM26.4756 19.7658C26.1073 19.4311 25.6233 19.2525 25.1258 19.2679C24.6284 19.2833 24.1564 19.4914 23.8095 19.8482L19.2229 24.5651C18.1189 24.3543 15.8994 23.6624 13.6147 21.3835C11.3301 19.0969 10.6381 16.8716 10.4331 15.7753L15.1461 11.1868C15.5034 10.8401 15.7118 10.368 15.7272 9.87045C15.7426 9.37285 15.5637 8.8888 15.2286 8.52072L8.14647 0.733301C7.81113 0.364068 7.34507 0.140101 6.84726 0.108966C6.34945 0.0778301 5.85911 0.24198 5.48039 0.566551L1.32122 4.13347C0.989849 4.46604 0.792065 4.90866 0.765385 5.37738C0.736635 5.85655 0.188469 17.2071 8.9898 26.0122C16.668 33.6885 26.2858 34.25 28.9346 34.25C29.3218 34.25 29.5595 34.2386 29.6227 34.2347C30.0914 34.2085 30.5338 34.0098 30.8647 33.677L34.4297 29.5159C34.7545 29.1374 34.919 28.6472 34.8882 28.1494C34.8575 27.6516 34.6338 27.1854 34.2649 26.8498L26.4756 19.7658V19.7658Z" fill="#072227"/>
</svg>
