<svg width="40" height="38" viewBox="0 0 40 38" fill="none" xmlns="http://www.w3.org/2000/svg">
<path fill-rule="evenodd" clip-rule="evenodd" d="M20.1071 0.367981C9.54815 0.367981 0.990234 8.9259 0.990234 19.4848C0.990234 27.9296 6.46615 35.0961 14.0638 37.6261C15.0202 37.7986 15.3652 37.2101 15.3652 36.7042C15.3652 36.2499 15.3499 35.0462 15.3442 33.4535C10.0254 34.6073 8.90223 30.889 8.90223 30.889C8.0359 28.681 6.78048 28.0926 6.78048 28.0926C5.0459 26.9061 6.91273 26.933 6.91273 26.933C8.83323 27.0671 9.83949 28.9033 9.83949 28.9033C11.5453 31.8243 14.3168 30.981 15.4017 30.4922C15.5761 29.256 16.0744 28.4126 16.6187 27.9354C12.3752 27.4543 7.91323 25.8136 7.91323 18.4862C7.91323 16.4028 8.65882 14.6931 9.8759 13.3591C9.68232 12.8742 9.02107 10.9288 10.0657 8.29915C10.0657 8.29915 11.6699 7.78356 15.3212 10.2561C16.8805 9.83185 18.4891 9.61531 20.1052 9.61206C21.7212 9.61469 23.3299 9.83123 24.8892 10.2561C28.5423 7.78165 30.1447 8.29915 30.1447 8.29915C31.1892 10.9288 30.5337 12.8742 30.3344 13.3591C31.5611 14.6931 32.2971 16.4009 32.2971 18.4862C32.2971 25.8328 27.8312 27.4466 23.5724 27.9201C24.2528 28.5104 24.8662 29.6757 24.8662 31.4582C24.8662 34.0151 24.8432 36.0774 24.8432 36.7042C24.8432 37.2159 25.1843 37.8101 26.1599 37.6222C33.7537 35.0884 39.2239 27.9277 39.2239 19.4848C39.2239 8.9259 30.666 0.367981 20.1071 0.367981Z" fill="white"/>
</svg>
