<svg width="40" height="40" viewBox="0 0 40 40" fill="none" xmlns="http://www.w3.org/2000/svg">
<path d="M39.4816 20.6307L21.4836 0.632929C20.7257 -0.210976 19.2698 -0.210976 18.5119 0.632929L0.51391 20.6307C0.254852 20.9179 0.0848074 21.2741 0.0244534 21.6561C-0.0359007 22.0381 0.0160357 22.4294 0.173948 22.7825C0.493912 23.5044 1.20983 23.9683 1.99974 23.9683H5.9993V37.9668C5.9993 38.4971 6.20999 39.0058 6.58502 39.3808C6.96005 39.7559 7.4687 39.9665 7.99907 39.9665H13.9984C14.5288 39.9665 15.0374 39.7559 15.4125 39.3808C15.7875 39.0058 15.9982 38.4971 15.9982 37.9668V29.9677H23.9973V37.9668C23.9973 38.4971 24.208 39.0058 24.583 39.3808C24.958 39.7559 25.4667 39.9665 25.9971 39.9665H31.9964C32.5268 39.9665 33.0354 39.7559 33.4104 39.3808C33.7855 39.0058 33.9962 38.4971 33.9962 37.9668V23.9683H37.9957C38.383 23.97 38.7624 23.8589 39.0877 23.6487C39.4129 23.4384 39.67 23.1381 39.8275 22.7842C39.985 22.4304 40.0362 22.0384 39.9747 21.656C39.9133 21.2736 39.742 20.9174 39.4816 20.6307Z" fill="#072227"/>
</svg>
