<svg width="44" height="44" viewBox="0 0 44 44" fill="none" xmlns="http://www.w3.org/2000/svg">
<path d="M21.6543 13.2666C19.4571 13.2666 17.3498 14.1394 15.7962 15.6931C14.2425 17.2468 13.3696 19.354 13.3696 21.5513C13.3696 23.7485 14.2425 25.8557 15.7962 27.4094C17.3498 28.9631 19.4571 29.8359 21.6543 29.8359C23.8515 29.8359 25.9588 28.9631 27.5124 27.4094C29.0661 25.8557 29.939 23.7485 29.939 21.5513C29.939 19.354 29.0661 17.2468 27.5124 15.6931C25.9588 14.1394 23.8515 13.2666 21.6543 13.2666ZM21.6543 26.9316C20.2269 26.9316 18.8579 26.3646 17.8485 25.3552C16.8392 24.3459 16.2721 22.9769 16.2721 21.5495C16.2721 20.122 16.8392 18.7531 17.8485 17.7437C18.8579 16.7344 20.2269 16.1673 21.6543 16.1673C23.0817 16.1673 24.4507 16.7344 25.4601 17.7437C26.4694 18.7531 27.0365 20.122 27.0365 21.5495C27.0365 22.9769 26.4694 24.3459 25.4601 25.3552C24.4507 26.3646 23.0817 26.9316 21.6543 26.9316Z" fill="white"/>
<path d="M30.2669 14.8935C31.3336 14.8935 32.1983 14.0287 32.1983 12.9621C32.1983 11.8954 31.3336 11.0306 30.2669 11.0306C29.2002 11.0306 28.3354 11.8954 28.3354 12.9621C28.3354 14.0287 29.2002 14.8935 30.2669 14.8935Z" fill="white"/>
<path d="M36.9444 10.9984C36.5296 9.9273 35.8958 8.9546 35.0834 8.14258C34.2711 7.33055 33.2982 6.69708 32.2269 6.28272C30.9733 5.81215 29.649 5.55771 28.3103 5.53022C26.585 5.45497 26.0385 5.43347 21.6632 5.43347C17.288 5.43347 16.7272 5.43347 15.0162 5.53022C13.6785 5.5563 12.3551 5.8108 11.1032 6.28272C10.0316 6.6966 9.05845 7.3299 8.24606 8.14199C7.43366 8.95407 6.79999 9.92702 6.38571 10.9984C5.91505 12.2519 5.66119 13.5763 5.635 14.915C5.55796 16.6386 5.53467 17.185 5.53467 21.5621C5.53467 25.9373 5.53467 26.4945 5.635 28.2091C5.66188 29.5493 5.9145 30.8716 6.38571 32.1275C6.80116 33.1985 7.43544 34.1711 8.24803 34.983C9.06062 35.795 10.0337 36.4286 11.105 36.8432C12.3545 37.3327 13.6785 37.6053 15.0197 37.6494C16.7451 37.7247 17.2916 37.748 21.6668 37.748C26.0421 37.748 26.6029 37.748 28.3139 37.6494C29.6525 37.6222 30.9767 37.3684 32.2305 36.8987C33.3015 36.4834 34.2741 35.8494 35.0864 35.0371C35.8986 34.2249 36.5326 33.2523 36.948 32.1813C37.4192 30.9271 37.6718 29.6049 37.6987 28.2647C37.7757 26.5411 37.799 25.9946 37.799 21.6176C37.799 17.2406 37.799 16.6851 37.6987 14.9705C37.6778 13.6129 37.4226 12.2691 36.9444 10.9984V10.9984ZM34.7621 28.0766C34.7506 29.1091 34.5621 30.132 34.2049 31.1009C33.9359 31.7976 33.5239 32.4303 32.9957 32.9583C32.4674 33.4862 31.8345 33.8978 31.1376 34.1664C30.1794 34.522 29.1674 34.7105 28.1455 34.7236C26.4434 34.8025 25.9632 34.8222 21.5987 34.8222C17.2307 34.8222 16.7845 34.8222 15.0502 34.7236C14.0288 34.7111 13.0172 34.5227 12.0599 34.1664C11.3606 33.8995 10.7251 33.4886 10.1946 32.9606C9.66406 32.4325 9.25029 31.799 8.98004 31.1009C8.62788 30.1424 8.43952 29.1316 8.42283 28.1106C8.34579 26.4085 8.32788 25.9284 8.32788 21.5639C8.32788 17.1976 8.32788 16.7514 8.42283 15.0153C8.43441 13.9833 8.62288 12.961 8.98004 11.9928C9.5265 10.5791 10.6463 9.46651 12.0599 8.92543C13.0177 8.57093 14.029 8.38249 15.0502 8.36822C16.7541 8.29118 17.2325 8.26968 21.5987 8.26968C25.965 8.26968 26.413 8.26968 28.1455 8.36822C29.1675 8.38052 30.1797 8.56902 31.1376 8.92543C31.8344 9.19467 32.4673 9.60663 32.9955 10.1349C33.5237 10.6631 33.9357 11.2959 34.2049 11.9928C34.5571 12.9512 34.7454 13.9621 34.7621 14.9831C34.8392 16.6869 34.8589 17.1653 34.8589 21.5316C34.8589 25.8961 34.8589 26.3655 34.7818 28.0784H34.7621V28.0766Z" fill="white"/>
</svg>
