<svg width="44" height="44" viewBox="0 0 44 44" fill="none" xmlns="http://www.w3.org/2000/svg">
<path d="M9.13536 13.1945C11.3508 13.1945 13.1467 11.3985 13.1467 9.18315C13.1467 6.96775 11.3508 5.17181 9.13536 5.17181C6.91996 5.17181 5.12402 6.96775 5.12402 9.18315C5.12402 11.3985 6.91996 13.1945 9.13536 13.1945Z" fill="white"/>
<path d="M16.9346 16.2341V38.489H23.8445V27.4835C23.8445 24.5795 24.3908 21.7671 27.9915 21.7671C31.5426 21.7671 31.5866 25.0873 31.5866 27.6668V38.4908H38.5001V26.2863C38.5001 20.2913 37.2095 15.6841 30.2025 15.6841C26.8383 15.6841 24.5833 17.5303 23.6611 19.2775H23.5676V16.2341H16.9346V16.2341ZM5.67432 16.2341H12.5951V38.489H5.67432V16.2341Z" fill="white"/>
</svg>
