<svg xmlns="http://www.w3.org/2000/svg" viewBox="0 0 978.17 392.63"><defs><style>.cls-1{fill:#fcfcfc;}.cls-2{fill:#fff;}</style></defs><g id="Capa_2" data-name="Capa 2"><g id="Capa_1-2" data-name="Capa 1"><path class="cls-1" d="M880.33,12.73,834.12,60.07c-2.67,2.73-7.74,4.42-13.24,4.42H606c-5.6,0-10.74-1.75-13.36-4.55L548.2,12.61C542.84,6.89,550.15,0,561.56,0H867.09C878.62,0,885.91,7,880.33,12.73Z"/><path class="cls-1" d="M966.32,234.35l-67-.38c-9-.05-14.74,5.41-10.39,9.87l26.24,26.88L975,332a4.26,4.26,0,0,1,0,6.44l-49.54,50.75c-4.47,4.58-16.08,4.58-20.54,0l-52.69-54-63-64.5-63-64.49-16.26-16.66c-5.75-5.89,1.85-13.12,13.73-13l116.61.62c6.53,0,11.85-2.95,11.85-6.65V78.94a4.66,4.66,0,0,1,1.47-3.22L905,23.26c4.46-4.58,16.07-4.58,20.54,0l51.22,52.46a4.65,4.65,0,0,1,1.46,3.22V227.69C978.17,231.39,972.84,234.38,966.32,234.35Z"/><path class="cls-2" d="M566.67,67.17V319.81a7.65,7.65,0,0,1-2.11,5.07l-49,55.8c-3.39,3.86-10.35,6.3-18,6.3H473.42c-11.09,0-20.09-5.09-20.09-11.38V11.38c0-6.28,9-11.38,20.09-11.38h24.15c7.62,0,14.58,2.44,18,6.31l49,55.79A7.67,7.67,0,0,1,566.67,67.17Z"/><path class="cls-2" d="M113.33,13.73V373.25c0,7.59-10.84,13.73-24.23,13.73H71.67C62.48,387,54.08,384,50,379.37l-47.44-54A9.28,9.28,0,0,1,0,319.26V67.73a9.26,9.26,0,0,1,2.54-6.12L50,7.61C54.08,3,62.48,0,71.67,0H89.1C102.49,0,113.33,6.15,113.33,13.73Z"/><path class="cls-2" d="M433.15,355.15l-90.77-76.67L266,214l-76.35-64.5-52.42-48.54A8.19,8.19,0,0,1,134.31,95V31.87c0-6.29,9-11.39,20.08-11.39H179c6.69,0,12.94,1.89,16.67,5L266,85,433.15,226.15"/></g></g></svg>