<svg width="58" height="59" viewBox="0 0 58 59" fill="none" xmlns="http://www.w3.org/2000/svg">
<path d="M6.25295 17.3735C6.73128 17.1344 7.09501 16.715 7.26412 16.2076V16.2076C7.41633 15.751 7.72687 15.3639 8.13962 15.1162L9.59089 14.2455C9.86327 14.082 10.1471 13.9385 10.4402 13.816L40.3663 1.30742C42.6714 0.343906 45.3019 1.60111 46 4V4L57.5 42.5V42.5C58.0829 45.1229 56.7495 47.7957 54.3034 48.9075L36.5 57L33.94 58.1636C32.245 58.9341 30.2414 58.3621 29.2086 56.8129V56.8129C29.0699 56.6048 28.9109 56.4109 28.7341 56.2341L24.418 51.918C23.81 51.31 23.304 50.6079 22.9194 49.8388L19 42L8.00384 22.8762C7.69215 22.3342 7.11452 22 6.48922 22V22C5.87551 22 5.3068 22.322 4.99105 22.8483L4.7384 23.2693C4.2785 24.0358 4.24208 24.9842 4.64184 25.7837L9.5 35.5L16.8973 47.0583C17.24 47.5937 17.9314 47.7843 18.5 47.5V47.5L26.4045 44.7334C27.4896 44.3536 28.6514 45.0597 28.814 46.1979V46.1979C28.9251 46.9755 28.5261 47.737 27.8235 48.0882L24 50L20.6297 51.4979C19.8849 51.829 19.0788 52 18.2638 52H17.5011C16.8483 52 16.2102 51.8068 15.667 51.4447V51.4447C15.2287 51.1525 14.8665 50.7597 14.6107 50.2992L12.5 46.5L5.5 35L1.66361 29.393C0.0456102 27.0282 -0.0186149 23.9298 1.5 21.5V21.5L2.06059 20.6591C2.35282 20.2208 2.68762 19.8124 3.06014 19.4399L3.33238 19.1676C3.77457 18.7254 4.28515 18.3574 4.84448 18.0778L6.25295 17.3735Z" fill="white"/>
</svg>
