<svg width="443" height="386" viewBox="0 0 443 386" fill="none" xmlns="http://www.w3.org/2000/svg">
<path d="M101 124.443C101 133.311 103.63 141.981 108.557 149.354C113.484 156.728 120.487 162.475 128.68 165.869C136.873 169.263 145.889 170.151 154.587 168.42C163.285 166.69 171.274 162.42 177.545 156.149C183.816 149.878 188.086 141.889 189.816 133.191C191.547 124.493 190.659 115.477 187.265 107.284C183.871 99.0907 178.124 92.0878 170.75 87.1609C163.377 82.2339 154.707 79.6041 145.839 79.6041C133.977 79.5745 122.588 84.2584 114.179 92.6254C105.771 100.992 101.03 112.357 101 124.22C101 124.294 101 124.369 101 124.443Z" fill="#FFB7B7"/>
<path d="M196.63 87.1968C193.016 84.4057 190.077 80.8351 188.034 76.7509C187.305 75.1986 186.298 73.7921 185.065 72.6004L176.587 79.1208L181.768 70.0963C168.498 62.075 142.585 66.3352 142.585 66.3352C115.628 51.981 105.73 69.8991 102.279 81.2625C100.912 85.3747 98.5014 89.0619 95.2829 91.9637C88.6334 98.304 99.1046 110.637 99.1046 110.637V111.508L101.604 128.484C101.604 128.484 104.104 117.237 110.699 109.333C114.858 104.35 121.626 101.387 124.769 101.449C165.339 102.24 173.02 103.847 173.02 103.847C173.02 103.847 179.889 107.537 182.922 109.087C192.724 114.096 190.333 132.233 190.333 132.233L197.658 100.042C199.349 92.2389 198.41 88.6586 196.63 87.1968Z" fill="#A17950"/>
<circle cx="130.999" cy="121.5" r="10.5" fill="white"/>
<ellipse cx="124.5" cy="122" rx="4.5" ry="4" fill="#220B0B"/>
<circle cx="161.999" cy="121.5" r="10.5" fill="white"/>
<ellipse cx="155.5" cy="122" rx="4.5" ry="4" fill="#220B0B"/>
<path d="M64.1657 231.448L44.8821 212.146L28.9619 232.977C26.3724 236.408 24.9063 240.58 24.869 244.624C24.8317 248.669 26.2261 252.275 28.7618 254.692C30.0878 255.955 31.6858 256.854 33.46 257.335C35.2342 257.816 37.148 257.869 39.0869 257.492C41.0258 257.114 42.9497 256.313 44.7435 255.137C46.5373 253.961 48.1641 252.434 49.5263 250.647L64.4521 231.478L64.1657 231.448Z" fill="#FFB7B7"/>
<g clip-path="url(#clip0_149_152)">
<path d="M133.211 310.399C136.199 311.639 137.187 313.237 137.187 313.237C137.845 313.091 138.526 313.081 139.187 313.207C139.849 313.333 140.478 313.593 141.035 313.972C141.593 314.35 142.068 314.839 142.431 315.408C142.793 315.977 143.037 316.614 143.145 317.281L143.473 319.277C143.677 320.531 143.394 321.817 142.684 322.87C141.973 323.923 140.887 324.664 139.65 324.941L139.503 324.974C134.579 327.403 129.246 328.888 123.781 329.352C112.069 330.341 106.157 325.33 106.133 321.663C106.11 318.196 119.852 316.324 124.942 315.569L119.789 313.379C119.459 313.238 119.185 312.993 119.009 312.68C118.833 312.368 118.766 312.005 118.816 311.649C118.867 311.294 119.034 310.964 119.29 310.713C119.546 310.462 119.878 310.303 120.234 310.26L126.262 309.541C128.614 309.23 131.006 309.525 133.211 310.399V310.399Z" fill="#FFB7B7"/>
<path d="M213.102 309.653L139.504 324.967L136.075 312.305L208.04 284.495C209.747 284.131 211.51 284.121 213.221 284.465C214.931 284.81 216.553 285.502 217.986 286.499C219.419 287.496 220.633 288.776 221.554 290.262C222.474 291.748 223.082 293.408 223.339 295.139V295.139C223.828 298.413 223.036 301.752 221.128 304.457C219.22 307.162 216.344 309.024 213.102 309.653Z" fill="#FFB7B7"/>
<path d="M200.404 277.02L225.868 278.68L223.392 298.619C222.965 301.884 221.298 304.861 218.739 306.927C216.18 308.993 212.926 309.99 209.656 309.71V309.71C207.946 309.565 206.283 309.075 204.767 308.27C203.251 307.464 201.914 306.36 200.835 305.022C199.756 303.684 198.958 302.142 198.489 300.486C198.02 298.831 197.889 297.096 198.104 295.388L200.19 276.868L200.404 277.02Z" fill="#FFB7B7"/>
<path d="M236.137 214.499C235.277 239.584 235.576 270.305 235.608 274.772L207.29 276.26L206.41 213.484C206.438 211.624 206.88 209.794 207.709 208.107C208.538 206.42 209.736 204.912 211.23 203.675C212.723 202.437 214.481 201.497 216.396 200.913C218.31 200.328 220.34 200.11 222.361 200.274V200.274C226.186 200.582 229.755 202.234 232.322 204.885C234.889 207.536 236.256 210.981 236.137 214.499Z" fill="#F50057"/>
<path d="M198.255 276.891L228.039 279.501L228.957 269.562L199.461 267.274L198.255 276.891Z" fill="#FF8A9E"/>
</g>
<path d="M92 280.5L88 226L74.7634 208.855L55 213L59 202.5L84.5 181L119.807 180H187.5L217.5 181L233.5 198.472L236 213L210.5 208.855L205 226L208 306V334H92V300.958V280.5Z" fill="#F50057"/>
<path d="M73.5 185.156C61.4026 198.994 45.7991 213.514 43.4946 215.851L66.1646 235.304L98.8976 202.665C99.8265 201.663 100.397 200.404 100.574 198.964C100.751 197.525 100.531 195.937 99.9271 194.296C99.3232 192.656 98.3486 190.999 97.0629 189.427C95.7773 187.855 94.2079 186.402 92.4515 185.156C89.1313 182.799 89.9741 181.788 86.4992 181.5C83.0243 181.212 73.5 185.156 73.5 185.156Z" fill="#F50057"/>
<path d="M66.2353 237.82L40.2751 216.097L45.7782 211.084L71.3167 232.744L66.2353 237.82Z" fill="#FF8A9E"/>
<path d="M159.004 155.011L128.97 167.882C128.292 168.171 127.682 168.597 127.182 169.129C126.682 169.662 126.305 170.288 126.077 170.965C124.887 171.248 123.772 171.795 122.824 172.563C121.875 173.33 121.121 174.296 120.622 175.382C120.123 176.467 119.894 177.641 119.954 178.806C120.014 179.971 120.361 181.095 120.967 182.086C121.572 183.076 125.32 188.793 125.32 188.793C125.32 188.793 133.969 204.433 135.36 204.954C137.408 205.192 138.608 205.05 139.845 204.52C139.845 204.52 142.476 203.392 143.462 202.97L148.81 209.245C149.494 210.026 150.43 210.565 151.479 210.784C152.528 211.002 153.636 210.888 154.639 210.457L174.166 202.089C175.169 201.659 176.016 200.936 176.581 200.026C177.147 199.115 177.401 198.066 177.307 197.032L165.952 158.836C165.883 158.079 165.63 157.356 165.213 156.723C164.796 156.091 164.227 155.568 163.551 155.196C162.875 154.824 162.112 154.613 161.322 154.581C160.532 154.549 159.738 154.696 159.004 155.011ZM136.584 201.453C135.193 200.932 125.946 184.804 125.946 184.804L123.838 181.243C123.838 181.243 122.178 178.187 122.745 176.875C123.312 175.563 124.339 174.331 125.689 173.753C125.782 173.713 126.017 173.612 126.017 173.612C126.384 174.467 126.569 174.864 126.948 175.551L140.344 199.841C139.765 200.582 137.705 201.344 136.584 201.453Z" fill="#F0F0F0"/>
<path d="M100.78 195.876C99.8352 198.279 99.5895 200.985 100.073 203.661C99.2665 204.245 98.5924 205.009 98.0917 205.907C97.5911 206.806 97.2746 207.82 97.1613 208.887C97.0479 209.955 97.1399 211.054 97.4321 212.117C97.7243 213.181 98.2105 214.187 98.8611 215.075L100.811 217.743C102.032 219.421 103.769 220.585 105.664 220.993C107.559 221.402 109.469 221.026 111.002 219.941L111.195 219.873C118.801 217.087 125.738 212.751 131.649 207.087C144.325 194.909 138.506 188.422 134.5 184.123C130.494 179.823 120.752 187.588 114.872 192.486L117.466 184.123C117.614 183.598 117.597 183.022 117.418 182.48C117.24 181.938 116.908 181.457 116.473 181.108C116.038 180.759 115.522 180.559 115 180.539C114.477 180.519 113.976 180.679 113.569 180.995L106.837 186.981C104.094 189.272 102.008 192.335 100.78 195.876Z" fill="#FFB7B7"/>
<path d="M48.9579 266.5L114.876 217.891L106.551 203.931L31.1442 240.239C29.607 241.359 28.3319 242.836 27.3974 244.58C26.4629 246.323 25.8888 248.295 25.7105 250.375C25.5322 252.455 25.7535 254.598 26.3606 256.673C26.9678 258.747 27.9479 260.71 29.2409 262.439C31.6777 265.715 35.0922 267.968 38.7681 268.725C42.444 269.482 46.0958 268.685 48.9579 266.5Z" fill="#FFB7B7"/>
<path d="M338.897 294.998C338.897 293.02 338.31 291.087 337.212 289.443C336.113 287.799 334.552 286.518 332.725 285.761C330.898 285.004 328.888 284.806 326.949 285.192C325.009 285.578 323.228 286.53 321.83 287.928C320.431 289.326 319.479 291.108 319.093 293.047C318.708 294.987 318.906 296.997 319.662 298.824C320.419 300.65 321.701 302.212 323.345 303.31C324.989 304.409 326.922 304.995 328.899 304.995C329.024 304.995 329.144 304.981 329.268 304.977C331.74 313.012 333.061 321.358 333.191 329.765C333.286 333.955 333.046 338.147 332.474 342.3C332.039 345.247 331.227 348.627 328.302 350.004C326.12 351.03 328.021 354.263 330.194 353.241C333.493 351.689 335.098 348.209 335.818 344.809C336.638 340.424 337.016 335.968 336.946 331.509C336.985 322.237 335.631 313.012 332.929 304.143C334.704 303.362 336.213 302.081 337.272 300.457C338.332 298.834 338.896 296.937 338.897 294.998Z" fill="#E6E6E6"/>
<path d="M335.717 355.243C335.717 355.243 322.312 322.245 362.528 297.497L335.717 355.243Z" fill="#E6E6E6"/>
<path d="M334.998 354.642C334.998 354.642 330.909 331.123 299.258 331.325L334.998 354.642Z" fill="#E6E6E6"/>
<path d="M357.426 383.527H302.463C301.409 383.527 300.376 383.23 299.482 382.671C298.588 382.112 297.869 381.313 297.408 380.365L285.441 355.767C285.025 354.91 284.832 353.961 284.883 353.009C284.934 352.057 285.225 351.134 285.731 350.326C286.236 349.518 286.939 348.852 287.772 348.39C288.606 347.928 289.544 347.686 290.497 347.686H369.392C370.345 347.686 371.283 347.928 372.116 348.39C372.95 348.852 373.653 349.518 374.158 350.326C374.664 351.134 374.955 352.057 375.006 353.009C375.056 353.96 374.864 354.909 374.447 355.766L362.481 380.364C362.019 381.313 361.301 382.112 360.407 382.671C359.513 383.23 358.48 383.527 357.426 383.527Z" fill="#F0F0F0"/>
<path d="M277.436 376.35C277.436 378.909 276.419 381.364 274.609 383.174C272.799 384.983 270.345 386 267.786 386H9.65009C7.09073 386 4.6362 384.983 2.82645 383.174C1.01671 381.364 6.62886e-06 378.909 0 376.35C0 373.791 1.01668 371.336 2.82642 369.526C4.63615 367.717 7.0907 366.7 9.65005 366.7H12.5151C12.3512 366.125 12.2659 365.531 12.2616 364.933V233.146C12.2616 230.924 13.1445 228.792 14.7163 227.22C16.288 225.648 18.4197 224.765 20.6425 224.765H256.793C259.016 224.765 261.148 225.648 262.719 227.22C264.291 228.792 265.174 230.923 265.174 233.146V364.933C265.175 365.531 265.089 366.126 264.92 366.7H267.785C269.053 366.7 270.308 366.949 271.478 367.434C272.649 367.919 273.713 368.63 274.609 369.526C275.505 370.422 276.216 371.486 276.701 372.657C277.186 373.828 277.436 375.083 277.436 376.35Z" fill="#3F3D56"/>
<path d="M173.717 300.034C170.767 300.034 167.883 299.159 165.43 297.52C162.977 295.881 161.065 293.551 159.936 290.825C158.807 288.1 158.511 285.1 159.087 282.207C159.662 279.313 161.083 276.655 163.169 274.569C165.255 272.483 167.913 271.062 170.807 270.487C173.7 269.911 176.7 270.206 179.425 271.335C182.151 272.464 184.481 274.376 186.12 276.829C187.759 279.282 188.634 282.166 188.634 285.117C188.63 289.071 187.057 292.863 184.26 295.66C181.464 298.456 177.672 300.029 173.717 300.034ZM173.717 272.699C171.261 272.699 168.86 273.428 166.818 274.792C164.776 276.157 163.185 278.096 162.245 280.365C161.305 282.634 161.059 285.131 161.538 287.539C162.017 289.948 163.2 292.161 164.937 293.897C166.673 295.634 168.886 296.817 171.295 297.296C173.704 297.775 176.2 297.529 178.469 296.589C180.738 295.649 182.678 294.057 184.042 292.015C185.406 289.973 186.135 287.572 186.135 285.117C186.131 281.824 184.821 278.668 182.493 276.34C180.165 274.013 177.009 272.703 173.717 272.699Z" fill="white"/>
<path d="M168.718 293.785C176.266 293.785 182.385 287.666 182.385 280.117C182.385 272.569 176.266 266.45 168.718 266.45C161.17 266.45 155.051 272.569 155.051 280.117C155.051 287.666 161.17 293.785 168.718 293.785Z" fill="white"/>
<defs>
<clipPath id="clip0_149_152">
<rect width="110.03" height="146.075" fill="white" transform="matrix(-0.976639 -0.214885 -0.214885 0.976639 243.849 207.644)"/>
</clipPath>
</defs>
</svg>
