<svg width="436" height="385" viewBox="0 0 436 385" fill="none" xmlns="http://www.w3.org/2000/svg">
<g id="nain tomando cafe">
<path id="Vector" d="M94.0001 124.443C94.0001 133.311 96.6299 141.981 101.557 149.354C106.484 156.728 113.487 162.475 121.68 165.869C129.873 169.263 138.889 170.151 147.587 168.42C156.285 166.69 164.274 162.42 170.545 156.149C176.816 149.878 181.086 141.889 182.816 133.191C184.547 124.493 183.659 115.477 180.265 107.284C176.871 99.0907 171.124 92.0878 163.75 87.1609C156.377 82.2339 147.707 79.6041 138.839 79.6041C126.977 79.5745 115.588 84.2584 107.179 92.6254C98.7705 100.992 94.0298 112.357 94.0002 124.22C94 124.294 94 124.369 94.0001 124.443Z" fill="#FFB7B7"/>
<path id="Vector_2" d="M189.63 87.1968C186.016 84.4057 183.077 80.8351 181.034 76.7509C180.305 75.1986 179.298 73.7921 178.065 72.6004L169.587 79.1208L174.768 70.0963C161.498 62.075 135.585 66.3352 135.585 66.3352C108.628 51.981 98.7297 69.8991 95.2789 81.2625C93.912 85.3747 91.5014 89.0619 88.2829 91.9637C81.6334 98.304 92.1046 110.637 92.1046 110.637V111.508L94.6041 128.484C94.6041 128.484 97.1035 117.237 103.699 109.333C107.858 104.35 114.626 101.387 117.769 101.449C158.339 102.24 166.02 103.847 166.02 103.847C166.02 103.847 172.889 107.537 175.922 109.087C185.724 114.096 183.333 132.233 183.333 132.233L190.658 100.042C192.349 92.2389 191.41 88.6586 189.63 87.1968Z" fill="#A17950"/>
<g id="leftEye">
<circle id="Ellipse 5" cx="123.999" cy="121.5" r="10.5" fill="white"/>
<ellipse id="Ellipse 6" cx="117.5" cy="122" rx="4.5" ry="4" fill="#220B0B"/>
</g>
<g id="right-eye">
<circle id="Ellipse 7" cx="154.999" cy="121.5" r="10.5" fill="white"/>
<ellipse id="Ellipse 8" cx="148.5" cy="122" rx="4.5" ry="4" fill="#220B0B"/>
</g>
<path id="Vector_3" d="M57.1657 231.448L37.8821 212.146L21.9619 232.977C19.3724 236.408 17.9063 240.58 17.869 244.624C17.8317 248.669 19.2261 252.275 21.7618 254.692V254.692C23.0878 255.955 24.6858 256.854 26.46 257.335C28.2342 257.816 30.148 257.869 32.0869 257.492C34.0258 257.114 35.9497 256.313 37.7435 255.137C39.5373 253.961 41.1641 252.434 42.5263 250.647L57.4521 231.478L57.1657 231.448Z" fill="#FFB7B7"/>
<path id="Vector_4" d="M85 280.5L81 226L67.7634 208.855L48 213L52 202.5L77.5 181L112.807 180H180.5L210.5 181L226.5 198.472L229 213L203.5 208.855L198 226L201 306V334H85V300.958V280.5Z" fill="#F50057"/>
<path id="Vector_5" d="M126.211 310.399C129.199 311.639 130.187 313.237 130.187 313.237C130.845 313.091 131.526 313.081 132.187 313.207C132.849 313.333 133.478 313.593 134.035 313.972C134.593 314.35 135.068 314.839 135.431 315.408C135.793 315.977 136.037 316.614 136.145 317.281L136.473 319.277C136.677 320.531 136.394 321.817 135.684 322.87C134.973 323.923 133.887 324.664 132.65 324.941L132.503 324.974C127.579 327.403 122.246 328.888 116.781 329.352C105.069 330.341 99.1573 325.33 99.1326 321.663C99.1096 318.196 112.852 316.324 117.942 315.569L112.789 313.379C112.459 313.238 112.185 312.993 112.009 312.68C111.833 312.368 111.766 312.005 111.816 311.649C111.867 311.294 112.034 310.964 112.29 310.713C112.546 310.462 112.878 310.303 113.234 310.26L119.262 309.541C121.614 309.23 124.006 309.525 126.211 310.399V310.399Z" fill="#FFB7B7"/>
<path id="Vector_6" d="M206.102 309.653L132.504 324.967L129.075 312.305L201.04 284.495C202.747 284.131 204.51 284.121 206.221 284.465C207.931 284.81 209.553 285.502 210.986 286.499C212.419 287.496 213.633 288.776 214.554 290.262C215.474 291.748 216.082 293.408 216.339 295.139V295.139C216.828 298.413 216.036 301.752 214.128 304.457C212.22 307.162 209.344 309.024 206.102 309.653Z" fill="#FFB7B7"/>
<path id="Vector_7" d="M193.404 277.02L218.868 278.68L216.392 298.619C215.965 301.884 214.298 304.861 211.739 306.927C209.18 308.993 205.926 309.99 202.656 309.71V309.71C200.946 309.565 199.283 309.075 197.767 308.27C196.251 307.464 194.914 306.36 193.835 305.022C192.756 303.684 191.958 302.142 191.489 300.486C191.02 298.831 190.889 297.096 191.104 295.388L193.19 276.868L193.404 277.02Z" fill="#FFB7B7"/>
<path id="Vector_8" d="M229.137 214.499C228.277 239.584 228.576 270.305 228.608 274.772L200.29 276.26L199.41 213.484C199.438 211.624 199.88 209.794 200.709 208.107C201.538 206.42 202.736 204.912 204.23 203.675C205.723 202.437 207.481 201.497 209.396 200.913C211.31 200.328 213.34 200.11 215.361 200.274V200.274C219.186 200.582 222.755 202.234 225.322 204.885C227.889 207.536 229.256 210.981 229.137 214.499Z" fill="#F50057"/>
<path id="Vector_9" d="M191.255 276.891L221.039 279.501L221.957 269.562L192.461 267.274L191.255 276.891Z" fill="#FF8A9E"/>
<path id="Vector_10" d="M67.4682 185.838C55.131 199.507 38.8756 213.568 36.4946 215.852L64.287 238.911L98.1632 207.076C99.1168 206.092 99.6363 204.796 99.6895 203.27C99.7428 201.744 99.3286 200.019 98.4728 198.201C97.617 196.383 96.3376 194.512 94.7132 192.701C93.0887 190.891 91.1537 189.18 89.0274 187.674C85.0077 184.824 85.8624 183.821 81.8797 183.176C77.897 182.531 67.4682 185.838 67.4682 185.838Z" fill="#F50057"/>
<path id="Vector_11" d="M331.897 294.998C331.897 293.02 331.31 291.087 330.212 289.443C329.113 287.799 327.552 286.518 325.725 285.761C323.898 285.004 321.888 284.806 319.949 285.192C318.009 285.578 316.228 286.53 314.83 287.928C313.431 289.326 312.479 291.108 312.093 293.047C311.708 294.987 311.906 296.997 312.662 298.824C313.419 300.65 314.701 302.212 316.345 303.31C317.989 304.409 319.922 304.995 321.899 304.995C322.024 304.995 322.144 304.981 322.268 304.977C324.74 313.012 326.061 321.358 326.191 329.765C326.286 333.955 326.046 338.147 325.474 342.3C325.039 345.247 324.227 348.627 321.302 350.004C319.12 351.03 321.021 354.263 323.194 353.241C326.493 351.689 328.098 348.209 328.818 344.809C329.638 340.424 330.016 335.968 329.946 331.509C329.985 322.237 328.631 313.012 325.929 304.143C327.704 303.362 329.213 302.081 330.272 300.457C331.332 298.834 331.896 296.937 331.897 294.998V294.998Z" fill="#E6E6E6"/>
<path id="Vector_12" d="M59.2353 237.82L33.2751 216.097L38.7782 211.084L64.3167 232.744L59.2353 237.82Z" fill="#FF8A9E"/>
<g id="left-arm">
<path id="Vector_13" d="M152.004 155.011L121.97 167.882C121.292 168.171 120.682 168.597 120.182 169.129C119.682 169.662 119.305 170.288 119.077 170.965C117.887 171.248 116.772 171.795 115.824 172.563C114.875 173.33 114.121 174.296 113.622 175.382C113.123 176.467 112.894 177.641 112.954 178.806C113.014 179.971 113.361 181.095 113.967 182.086C114.572 183.076 118.32 188.793 118.32 188.793C118.32 188.793 126.969 204.433 128.36 204.954C130.408 205.192 131.608 205.05 132.845 204.52C132.845 204.52 135.476 203.392 136.462 202.97L141.81 209.245C142.494 210.026 143.43 210.565 144.479 210.784C145.528 211.002 146.636 210.888 147.639 210.457L167.166 202.089C168.169 201.659 169.016 200.936 169.581 200.026C170.147 199.115 170.401 198.066 170.307 197.032L158.952 158.836C158.883 158.079 158.63 157.356 158.213 156.723C157.796 156.091 157.227 155.568 156.551 155.196C155.875 154.824 155.112 154.613 154.322 154.581C153.532 154.549 152.738 154.696 152.004 155.011ZM129.584 201.453C128.193 200.932 118.946 184.804 118.946 184.804L116.838 181.243C116.838 181.243 115.178 178.187 115.745 176.875C116.312 175.563 117.339 174.331 118.689 173.753C118.782 173.713 119.017 173.612 119.017 173.612C119.384 174.467 119.569 174.864 119.948 175.551L133.344 199.841C132.765 200.582 130.705 201.344 129.584 201.453Z" fill="#F0F0F0"/>
<path id="Vector_14" d="M93.7798 195.876C92.8352 198.279 92.5895 200.985 93.0733 203.661C92.2665 204.245 91.5924 205.009 91.0917 205.907C90.5911 206.806 90.2746 207.82 90.1613 208.887C90.0479 209.955 90.1399 211.054 90.4321 212.117C90.7243 213.181 91.2105 214.187 91.8611 215.075L93.8111 217.743C95.0322 219.421 96.7686 220.585 98.6638 220.993C100.559 221.402 102.469 221.026 104.002 219.941L104.195 219.873C111.801 217.087 118.738 212.751 124.649 207.087C137.325 194.909 131.506 188.422 127.5 184.123C123.494 179.823 113.752 187.588 107.872 192.486L110.466 184.123C110.614 183.598 110.597 183.022 110.418 182.48C110.24 181.938 109.908 181.457 109.473 181.108C109.038 180.759 108.522 180.559 108 180.539C107.477 180.519 106.976 180.679 106.569 180.995L99.8374 186.981C97.0942 189.272 95.0077 192.335 93.7798 195.876Z" fill="#FFB7B7"/>
<path id="Vector_15" d="M41.9579 266.5L107.876 217.891L99.5509 203.931L24.1442 240.239C22.607 241.359 21.3319 242.836 20.3974 244.58C19.4629 246.323 18.8888 248.295 18.7105 250.375C18.5322 252.455 18.7535 254.598 19.3606 256.673C19.9678 258.747 20.9479 260.71 22.2409 262.439V262.439C24.6777 265.715 28.0922 267.968 31.7681 268.725C35.444 269.482 39.0958 268.685 41.9579 266.5V266.5Z" fill="#FFB7B7"/>
</g>
<path id="Path 482" d="M328.717 355.243C328.717 355.243 315.312 322.245 355.528 297.497L328.717 355.243Z" fill="#E6E6E6"/>
<path id="Path 483" d="M327.998 354.642C327.998 354.642 323.909 331.123 292.258 331.325L327.998 354.642Z" fill="#E6E6E6"/>
<path id="Vector_16" d="M350.426 383.527H295.463C294.409 383.527 293.376 383.23 292.482 382.671C291.588 382.112 290.869 381.313 290.408 380.365L278.441 355.767C278.025 354.91 277.832 353.961 277.883 353.009C277.934 352.057 278.225 351.134 278.731 350.326C279.236 349.518 279.939 348.852 280.772 348.39C281.606 347.928 282.544 347.686 283.497 347.686H362.392C363.345 347.686 364.283 347.928 365.116 348.39C365.95 348.852 366.653 349.518 367.158 350.326C367.664 351.134 367.955 352.057 368.006 353.009C368.056 353.96 367.864 354.909 367.447 355.766L355.481 380.364C355.019 381.313 354.301 382.112 353.407 382.671C352.513 383.23 351.48 383.527 350.426 383.527Z" fill="#F0F0F0"/>
<path id="Vector_17" d="M277.436 374.585C277.436 377.144 276.419 379.598 274.609 381.408C272.799 383.218 270.345 384.235 267.786 384.235H9.65009C7.09073 384.235 4.6362 383.218 2.82645 381.408C1.01671 379.598 6.62886e-06 377.144 0 374.585C0 372.025 1.01668 369.571 2.82642 367.761C4.63615 365.951 7.0907 364.935 9.65005 364.935H12.5151C12.3512 364.36 12.2659 363.765 12.2616 363.168V231.381C12.2616 229.158 13.1445 227.026 14.7163 225.455C16.288 223.883 18.4197 223 20.6425 223H256.793C259.016 223 261.148 223.883 262.719 225.455C264.291 227.026 265.174 229.158 265.174 231.381V363.168C265.175 363.766 265.089 364.361 264.92 364.934H267.785C269.053 364.934 270.308 365.184 271.478 365.669C272.649 366.154 273.713 366.865 274.609 367.761C275.505 368.657 276.216 369.721 276.701 370.892C277.186 372.062 277.436 373.317 277.436 374.585Z" fill="#3F3D56"/>
<path id="Vector_18" d="M166.717 300.034C163.767 300.034 160.883 299.159 158.43 297.52C155.977 295.881 154.065 293.551 152.936 290.825C151.807 288.1 151.511 285.1 152.087 282.207C152.662 279.313 154.083 276.655 156.169 274.569C158.255 272.483 160.913 271.062 163.807 270.487C166.7 269.911 169.7 270.206 172.425 271.335C175.151 272.464 177.481 274.376 179.12 276.829C180.759 279.282 181.634 282.166 181.634 285.117C181.63 289.071 180.057 292.863 177.26 295.66C174.464 298.456 170.672 300.029 166.717 300.034V300.034ZM166.717 272.699C164.261 272.699 161.86 273.428 159.818 274.792C157.776 276.157 156.185 278.096 155.245 280.365C154.305 282.634 154.059 285.131 154.538 287.539C155.017 289.948 156.2 292.161 157.937 293.897C159.673 295.634 161.886 296.817 164.295 297.296C166.704 297.775 169.2 297.529 171.469 296.589C173.738 295.649 175.678 294.057 177.042 292.015C178.406 289.973 179.135 287.572 179.135 285.117C179.131 281.824 177.821 278.668 175.493 276.34C173.165 274.013 170.009 272.703 166.717 272.699V272.699Z" fill="white"/>
<path id="Vector_19" d="M161.718 293.785C169.266 293.785 175.385 287.666 175.385 280.117C175.385 272.569 169.266 266.45 161.718 266.45C154.17 266.45 148.051 272.569 148.051 280.117C148.051 287.666 154.17 293.785 161.718 293.785Z" fill="white"/>
</g>
</svg>
