<svg width="454" height="323" viewBox="0 0 454 323" fill="none" xmlns="http://www.w3.org/2000/svg">
<path d="M51.5822 263.689H14.6999C13.8679 263.687 13.0455 263.867 12.2903 264.216C11.5351 264.565 10.8653 265.075 10.3277 265.71C8.96737 265.46 7.56712 265.536 6.2419 265.932C4.91668 266.328 3.70429 267.033 2.70425 267.989C1.70421 268.944 0.945019 270.123 0.489015 271.429C0.0330124 272.735 -0.106801 274.13 0.081033 275.5C0.268867 276.871 0.779001 278.177 1.56956 279.312C2.36013 280.447 3.40858 281.378 4.62885 282.029C5.84912 282.681 7.20642 283.033 8.58934 283.058C9.97226 283.083 11.3414 282.779 12.5843 282.173L16.893 318.357C17.2554 319.535 17.9859 320.566 18.9773 321.298C19.9688 322.03 21.1688 322.425 22.4013 322.425H46.3808C47.6132 322.425 48.8131 322.03 49.8045 321.298C50.7958 320.565 51.5262 319.535 51.8885 318.357L57.0905 271.147C57.3557 270.285 57.4149 269.372 57.2633 268.483C57.1117 267.594 56.7537 266.753 56.2179 266.028C55.6821 265.303 54.9835 264.713 54.1784 264.307C53.3733 263.9 52.484 263.689 51.5822 263.689ZM8.7717 280.56C7.11448 280.56 5.52513 279.901 4.3533 278.73C3.18147 277.558 2.52315 275.968 2.52315 274.311C2.52315 272.654 3.18147 271.065 4.3533 269.893C5.52513 268.721 7.11448 268.063 8.7717 268.063C8.88581 268.063 8.99199 268.09 9.10487 268.096C8.85635 269.102 8.88651 270.157 9.19213 271.147L11.8313 279.726C10.9015 280.266 9.84683 280.553 8.7717 280.56Z" fill="#F0F0F0"/>
<path d="M417.303 233.696C417.303 231.718 416.717 229.785 415.618 228.141C414.52 226.497 412.958 225.216 411.131 224.459C409.304 223.702 407.294 223.504 405.355 223.89C403.416 224.276 401.634 225.228 400.236 226.626C398.838 228.024 397.885 229.806 397.5 231.745C397.114 233.685 397.312 235.695 398.069 237.522C398.825 239.348 400.107 240.91 401.751 242.008C403.395 243.107 405.328 243.693 407.305 243.693C407.43 243.693 407.551 243.679 407.674 243.675C410.146 251.71 411.467 260.056 411.597 268.463C411.692 272.653 411.452 276.845 410.881 280.998C410.445 283.945 409.633 287.325 406.708 288.702C404.526 289.728 406.427 292.961 408.6 291.939C411.9 290.387 413.504 286.907 414.224 283.507C415.044 279.122 415.423 274.666 415.353 270.207C415.392 260.935 414.037 251.71 411.335 242.841C413.11 242.06 414.619 240.779 415.678 239.155C416.738 237.532 417.303 235.635 417.303 233.696Z" fill="#E6E6E6"/>
<path d="M414.248 293.941C414.248 293.941 400.843 260.943 441.059 236.195L414.248 293.941Z" fill="#E6E6E6"/>
<path d="M413.529 293.34C413.529 293.34 409.44 269.821 377.789 270.023L413.529 293.34Z" fill="#E6E6E6"/>
<path d="M435.957 322.225H380.995C379.94 322.225 378.907 321.928 378.013 321.369C377.119 320.81 376.401 320.011 375.939 319.063L363.973 294.465C363.556 293.608 363.364 292.659 363.414 291.707C363.465 290.755 363.757 289.832 364.262 289.024C364.767 288.216 365.47 287.55 366.304 287.088C367.137 286.626 368.075 286.384 369.028 286.384H447.923C448.876 286.384 449.814 286.626 450.648 287.088C451.481 287.55 452.184 288.216 452.689 289.024C453.195 289.832 453.487 290.755 453.537 291.707C453.588 292.658 453.395 293.607 452.979 294.464L441.012 319.062C440.551 320.011 439.832 320.81 438.938 321.369C438.044 321.928 437.011 322.225 435.957 322.225Z" fill="#F0F0F0"/>
<path d="M152.575 251.1L128.287 159.265L125.475 148.664L128.112 146.216L173.379 123.79L238.064 125.401L276.039 144.896L276.244 159.265L278.118 288.724L285.694 320.5H146.756L157.544 269.892L152.575 251.1Z" fill="#F50057"/>
<path d="M312.356 320.501H276.147L266.15 248.318L268.767 159.266L269.128 147.151L276.04 144.896C281.249 148.7 285.555 153.607 288.652 159.266C293.095 166.998 296.784 178.078 295.867 192.975C295.867 192.975 296.687 210.567 295.906 222.282C295.369 230.287 304.712 280.885 312.356 320.501Z" fill="#F50057"/>
<path d="M152.702 250.183L152.575 251.1L142.969 320.501H101.333C104.671 281.178 108.596 232.015 108.068 224.137C107.288 212.432 108.108 194.83 108.108 194.83C107.112 178.693 111.534 167.056 116.445 159.266C118.915 155.306 121.958 151.733 125.475 148.664C126.255 147.98 127.076 147.344 127.935 146.76L134.847 149.006L136.653 159.266L152.702 250.183Z" fill="#F50057"/>
<path d="M157.501 63.4431C157.501 72.3114 160.131 80.9806 165.058 88.3543C169.985 95.728 176.988 101.475 185.181 104.869C193.374 108.263 202.39 109.151 211.088 107.42C219.786 105.69 227.775 101.42 234.046 95.149C240.317 88.8782 244.587 80.8887 246.317 72.1908C248.048 63.4929 247.16 54.4772 243.766 46.284C240.372 38.0907 234.625 31.0878 227.251 26.1609C219.878 21.2339 211.208 18.6041 202.34 18.6041C190.478 18.5745 179.089 23.2584 170.68 31.6254C162.272 39.9925 157.531 51.3573 157.501 63.2197C157.501 63.2941 157.501 63.3686 157.501 63.4431Z" fill="#FFB7B7"/>
<path d="M345.562 313.35C345.562 315.909 344.545 318.364 342.735 320.174C340.925 321.983 338.471 323 335.912 323H77.7761C75.2167 323 72.7622 321.983 70.9524 320.174C69.1427 318.364 68.126 315.909 68.126 313.35C68.126 310.791 69.1427 308.336 70.9524 306.526C72.7621 304.717 75.2167 303.7 77.776 303.7H80.6411C80.4772 303.125 80.3919 302.531 80.3875 301.933V170.146C80.3875 167.924 81.2705 165.792 82.8423 164.22C84.414 162.648 86.5457 161.765 88.7685 161.765H324.919C327.142 161.765 329.274 162.648 330.845 164.22C332.417 165.792 333.3 167.923 333.3 170.146V301.933C333.301 302.531 333.215 303.126 333.046 303.7H335.911C337.179 303.7 338.434 303.949 339.604 304.434C340.775 304.919 341.839 305.63 342.735 306.526C343.631 307.422 344.342 308.486 344.827 309.657C345.312 310.828 345.562 312.083 345.562 313.35Z" fill="#3F3D56"/>
<path d="M241.844 237.034C238.893 237.034 236.009 236.159 233.556 234.52C231.103 232.881 229.191 230.551 228.062 227.825C226.933 225.1 226.638 222.1 227.213 219.207C227.789 216.313 229.21 213.655 231.296 211.569C233.382 209.483 236.04 208.062 238.933 207.487C241.827 206.911 244.826 207.206 247.552 208.335C250.278 209.464 252.607 211.376 254.246 213.829C255.886 216.282 256.76 219.166 256.761 222.117C256.756 226.071 255.183 229.863 252.387 232.66C249.59 235.456 245.799 237.029 241.844 237.034ZM241.844 209.699C239.388 209.699 236.987 210.428 234.945 211.792C232.903 213.157 231.311 215.096 230.371 217.365C229.432 219.634 229.186 222.131 229.665 224.539C230.144 226.948 231.327 229.161 233.063 230.897C234.8 232.634 237.013 233.817 239.421 234.296C241.83 234.775 244.327 234.529 246.596 233.589C248.865 232.649 250.804 231.057 252.169 229.015C253.533 226.973 254.261 224.572 254.261 222.117C254.257 218.824 252.948 215.668 250.62 213.34C248.292 211.013 245.136 209.703 241.844 209.699Z" fill="white"/>
<path d="M236.844 230.785C244.392 230.785 250.511 224.666 250.511 217.117C250.511 209.569 244.392 203.45 236.844 203.45C229.296 203.45 223.177 209.569 223.177 217.117C223.177 224.666 229.296 230.785 236.844 230.785Z" fill="white"/>
<path d="M253.131 26.1968C249.517 23.4057 246.578 19.8351 244.535 15.7509C243.806 14.1986 242.799 12.7921 241.566 11.6004L233.088 18.1208L238.269 9.09633C224.999 1.07497 199.086 5.33523 199.086 5.33523C172.129 -9.01905 162.231 8.89915 158.78 20.2625C157.413 24.3747 155.002 28.0619 151.784 30.9637C145.134 37.304 155.606 49.6368 155.606 49.6368V50.5084L158.105 67.4843C158.105 67.4843 160.604 56.2369 167.2 48.3333C171.359 43.3502 178.127 40.3874 181.27 40.4488C221.84 41.2404 229.521 42.8469 229.521 42.8469C229.521 42.8469 236.389 46.5368 239.423 48.0868C249.225 53.0958 246.834 71.2335 246.834 71.2335L254.159 39.0422C255.85 31.2389 254.911 27.6586 253.131 26.1968Z" fill="#A17950"/>
</svg>
