<svg width="44" height="37" viewBox="0 0 44 37" fill="none" xmlns="http://www.w3.org/2000/svg">
<path d="M39.4132 9.66006C39.4419 10.0465 39.4419 10.4308 39.4419 10.815C39.4419 22.5744 30.4915 36.1247 14.1344 36.1247C9.09497 36.1247 4.4133 34.665 0.473633 32.1298C1.18913 32.2116 1.87813 32.2403 2.62234 32.2403C6.62603 32.2499 10.5163 30.9112 13.6662 28.4397C11.8099 28.4061 10.0105 27.7937 8.51912 26.6879C7.02775 25.5822 5.91891 24.0383 5.34742 22.2718C5.8973 22.3536 6.44938 22.4088 7.02797 22.4088C7.82517 22.4088 8.6268 22.2983 9.37101 22.1062C7.35648 21.6995 5.54501 20.6075 4.24462 19.0161C2.94424 17.4246 2.2352 15.4319 2.23809 13.3767V13.2663C3.42397 13.9266 4.79976 14.3395 6.25726 14.3947C5.03625 13.5833 4.03506 12.4824 3.34301 11.19C2.65096 9.89758 2.28957 8.45399 2.29109 6.98797C2.29109 5.33614 2.73055 3.82122 3.50126 2.50064C5.7364 5.25006 8.52412 7.49934 11.6839 9.1028C14.8436 10.7063 18.305 11.6282 21.8437 11.8088C21.7068 11.1463 21.6228 10.4595 21.6228 9.77047C21.6223 8.60218 21.8519 7.44523 22.2988 6.36575C22.7456 5.28628 23.4008 4.30545 24.2269 3.47935C25.053 2.65324 26.0338 1.99805 27.1133 1.55123C28.1928 1.10441 29.3497 0.874726 30.518 0.875306C33.0797 0.875306 35.3918 1.94856 37.0171 3.68431C39.0085 3.29921 40.9182 2.57224 42.6616 1.5356C41.9978 3.59115 40.6073 5.33416 38.7507 6.4381C40.5169 6.23665 42.243 5.77218 43.8718 5.0601C42.6553 6.83361 41.1479 8.38882 39.4132 9.66006V9.66006Z" fill="white"/>
</svg>
