<svg width="39" height="38" viewBox="0 0 39 38" fill="none" xmlns="http://www.w3.org/2000/svg">
<path d="M34.5 8.63322H28.75V4.79989C28.75 2.6858 27.0308 0.966553 24.9167 0.966553H13.4167C11.3026 0.966553 9.58333 2.6858 9.58333 4.79989V8.63322H3.83333C1.71925 8.63322 0 10.3525 0 12.4666V20.1332H9.58333V16.2999H13.4167V20.1332H24.9167V16.2999H28.75V20.1332H38.3333V12.4666C38.3333 10.3525 36.6141 8.63322 34.5 8.63322ZM13.4167 4.79989H24.9167V8.63322H13.4167V4.79989ZM28.75 25.8832H24.9167V22.0499H13.4167V25.8832H9.58333V22.0499H0V33.5499C0 35.664 1.71925 37.3832 3.83333 37.3832H34.5C36.6141 37.3832 38.3333 35.664 38.3333 33.5499V22.0499H28.75V25.8832Z" fill="#072227"/>
</svg>
